<?xml version="1.0" encoding="UTF-8" standalone="no"?>
<svg
   xmlns:dc="http://purl.org/dc/elements/1.1/"
   xmlns:cc="http://creativecommons.org/ns#"
   xmlns:rdf="http://www.w3.org/1999/02/22-rdf-syntax-ns#"
   xmlns:svg="http://www.w3.org/2000/svg"
   xmlns="http://www.w3.org/2000/svg"
   xmlns:xlink="http://www.w3.org/1999/xlink"
   xmlns:sodipodi="http://sodipodi.sourceforge.net/DTD/sodipodi-0.dtd"
   xmlns:inkscape="http://www.inkscape.org/namespaces/inkscape"
   width="967.55908"
   height="967.55908"
   viewBox="0 0 256 256"
   version="1.1"
   id="svg8"
   inkscape:version="1.0.2 (e86c870, 2021-01-15)"
   sodipodi:docname="pdfbasics-icon.svg"
   inkscape:export-filename="D:\git\#playground\pdfbasics\assets\pdfbasics-icon.png"
   inkscape:export-xdpi="25.4"
   inkscape:export-ydpi="25.4">
  <defs
     id="defs2">
    <inkscape:path-effect
       effect="fillet_chamfer"
       id="path-effect964"
       is_visible="true"
       lpeversion="1"
       satellites_param="F,0,0,1,0,8,0,1 @ F,0,0,1,0,8,0,1 @ F,0,0,1,0,8,0,1 @ F,0,0,1,0,8,0,1"
       unit="px"
       method="auto"
       mode="F"
       radius="8"
       chamfer_steps="1"
       flexible="false"
       use_knot_distance="true"
       apply_no_radius="true"
       apply_with_radius="true"
       only_selected="false"
       hide_knots="false" />
    <linearGradient
       inkscape:collect="always"
       id="linearGradient841">
      <stop
         style="stop-color:#3399c9;stop-opacity:1"
         offset="0"
         id="stop837" />
      <stop
         style="stop-color:#003392;stop-opacity:1"
         offset="1"
         id="stop839" />
    </linearGradient>
    <linearGradient
       inkscape:collect="always"
       xlink:href="#linearGradient841"
       id="linearGradient845"
       gradientUnits="userSpaceOnUse"
       x1="122.6275"
       y1="101.08588"
       x2="122.6275"
       y2="159.51768"
       gradientTransform="matrix(1.8064627,0,0,1.8064627,-97.15901,-170.65717)" />
    <linearGradient
       inkscape:collect="always"
       xlink:href="#linearGradient841"
       id="linearGradient947"
       x1="36.496727"
       y1="80.508926"
       x2="36.496727"
       y2="172.9241"
       gradientUnits="userSpaceOnUse"
       gradientTransform="matrix(4.2925562,0,0,4.1619119,367.77191,187.79351)" />
  </defs>
  <sodipodi:namedview
     id="base"
     pagecolor="#ffffff"
     bordercolor="#666666"
     borderopacity="1.0"
     inkscape:pageopacity="0.0"
     inkscape:pageshadow="2"
     inkscape:zoom="1.4"
     inkscape:cx="184.13741"
     inkscape:cy="503.75206"
     inkscape:document-units="px"
     inkscape:current-layer="layer1"
     inkscape:document-rotation="0"
     showgrid="false"
     units="px" />
  <metadata
     id="metadata5">
    <rdf:RDF>
      <cc:Work
         rdf:about="">
        <dc:format>image/svg+xml</dc:format>
        <dc:type
           rdf:resource="http://purl.org/dc/dcmitype/StillImage" />
        <dc:title />
      </cc:Work>
    </rdf:RDF>
  </metadata>
  <g
     inkscape:label="Ebene 1"
     inkscape:groupmode="layer"
     id="layer1">
    <text
       xml:space="preserve"
       style="font-style:italic;font-variant:normal;font-weight:normal;font-stretch:normal;font-size:165.192px;line-height:125%;font-family:Calibri;-inkscape-font-specification:'Calibri Italic';letter-spacing:0px;word-spacing:0px;fill:url(#linearGradient845);fill-opacity:1;stroke:none;stroke-width:1.93585px;stroke-linecap:butt;stroke-linejoin:miter;stroke-opacity:1"
       x="-8.6788187"
       y="117.00526"
       id="text12"><tspan
         sodipodi:role="line"
         id="tspan10"
         x="-8.6788187"
         y="117.00526"
         style="font-style:normal;font-variant:normal;font-weight:bold;font-stretch:normal;font-size:165.192px;font-family:Calibri;-inkscape-font-specification:'Calibri Bold';fill:url(#linearGradient845);fill-opacity:1;stroke-width:1.93585px">PDF</tspan></text>
    <path
       id="rect939"
       style="fill:url(#linearGradient947);fill-opacity:1;stroke:none;stroke-width:3.38138;stroke-linecap:round;stroke-linejoin:round;stroke-miterlimit:4;stroke-dasharray:none;stroke-opacity:1;paint-order:stroke markers fill"
       d="M 41.873047 529.15625 A 30.236221 30.236221 0 0 0 11.636719 559.39258 L 11.636719 874.89258 A 30.236221 30.236221 0 0 0 41.873047 905.12891 L 925.68555 905.12891 A 30.236221 30.236221 0 0 0 955.92188 874.89258 L 955.92188 559.39258 A 30.236221 30.236221 0 0 0 925.68555 529.15625 L 41.873047 529.15625 z M 92.306641 595.47656 C 96.44835 595.47656 99.862312 595.64465 102.54883 595.98047 C 105.23534 596.31629 107.36255 596.82057 108.92969 597.49219 C 110.60876 598.05189 111.78345 598.77833 112.45508 599.67383 C 113.12671 600.56932 113.46289 601.57787 113.46289 602.69727 L 113.46289 685.47461 C 117.26878 681.66873 121.07496 678.42287 124.88086 675.73633 C 128.68676 673.04981 132.49293 670.86657 136.29883 669.1875 C 140.10472 667.39651 144.02101 666.10974 148.05078 665.32617 C 152.08055 664.5426 156.33498 664.15039 160.8125 664.15039 C 171.89437 664.15039 181.29776 666.38966 189.02148 670.86719 C 196.74521 675.23277 203.01283 681.16422 207.82617 688.66406 C 212.75145 696.16393 216.33351 704.95096 218.57227 715.02539 C 220.81103 724.98787 221.92969 735.51187 221.92969 746.59375 C 221.92969 759.91439 220.47484 771.89129 217.56445 782.52539 C 214.65406 793.15952 210.45762 802.22672 204.97266 809.72656 C 199.48769 817.22643 192.71384 822.98975 184.6543 827.01953 C 176.70669 831.04929 167.64145 833.06445 157.45508 833.06445 C 152.41786 833.06445 147.7152 832.56213 143.34961 831.55469 C 138.98402 830.65919 134.78759 829.14635 130.75781 827.01953 C 126.83998 824.89269 122.92174 822.20715 119.00391 818.96094 C 115.19801 815.71475 111.27977 811.79651 107.25 807.20703 L 107.25 823.49414 C 107.25 824.72546 106.91381 825.7881 106.24219 826.68359 C 105.68249 827.46717 104.6759 828.13952 103.2207 828.69922 C 101.87745 829.25892 100.03039 829.65113 97.679688 829.875 C 95.328988 830.09875 92.473377 830.21094 89.115234 830.21094 C 85.645152 830.21094 82.735466 830.09875 80.384766 829.875 C 78.146003 829.651 76.298944 829.25879 74.84375 828.69922 C 73.500491 828.13952 72.549924 827.46717 71.990234 826.68359 C 71.430544 825.7881 71.150391 824.72546 71.150391 823.49414 L 71.150391 602.69727 C 71.150391 601.57787 71.486574 600.56932 72.158203 599.67383 C 72.82983 598.77833 73.948492 598.05189 75.515625 597.49219 C 77.194698 596.82057 79.37794 596.31629 82.064453 595.98047 C 84.750969 595.64465 88.164931 595.47656 92.306641 595.47656 z M 583.9375 601.18555 C 593.34028 601.18555 599.72192 602.80848 603.08008 606.05469 C 606.43821 609.18895 608.11719 614.84218 608.11719 623.01367 C 608.11719 631.52096 606.38219 637.39637 602.91211 640.64258 C 599.44202 643.88879 593.0063 645.51367 583.60352 645.51367 C 574.08876 645.51367 567.6511 643.94483 564.29297 640.81055 C 561.04676 637.67629 559.42383 632.02501 559.42383 623.85352 C 559.42383 615.34623 561.10278 609.46887 564.46094 606.22266 C 567.931 602.86452 574.42274 601.18555 583.9375 601.18555 z M 317.13477 664.15039 C 328.88827 664.15039 338.90603 665.32509 347.18945 667.67578 C 355.58481 669.91455 362.46877 673.44055 367.8418 678.25391 C 373.21483 682.95529 377.13308 689.05677 379.5957 696.55664 C 382.05834 704.05648 383.28906 712.9556 383.28906 723.25391 L 383.28906 823.99805 C 383.28906 825.56517 382.72875 826.79588 381.60938 827.69141 C 380.49 828.5869 378.69898 829.20324 376.23633 829.53906 C 373.88563 829.98681 370.35961 830.21094 365.6582 830.21094 C 360.62099 830.21094 356.92883 829.98681 354.57812 829.53906 C 352.33936 829.20324 350.71447 828.5869 349.70703 827.69141 C 348.81153 826.79588 348.36523 825.56517 348.36523 823.99805 L 348.36523 812.07617 C 342.20864 818.68052 335.15659 823.82948 327.20898 827.52344 C 319.37332 831.2174 310.6423 833.06445 301.01562 833.06445 C 293.06802 833.06445 285.73582 832.00182 279.01953 829.875 C 272.41518 827.86011 266.64989 824.83838 261.72461 820.80859 C 256.91127 816.66689 253.16113 811.57199 250.47461 805.52734 C 247.7881 799.48269 246.44531 792.43066 246.44531 784.37109 C 246.44531 775.63993 248.12428 768.08555 251.48242 761.70508 C 254.9525 755.21266 260.04543 749.89561 266.76172 745.75391 C 273.58994 741.50027 282.0408 738.3645 292.11523 736.34961 C 302.18967 734.33472 313.88835 733.32813 327.20898 733.32812 L 341.81641 733.32812 L 341.81641 724.26172 C 341.81641 719.56031 341.31213 715.47399 340.30469 712.00391 C 339.40918 708.4219 337.84228 705.45618 335.60352 703.10547 C 333.47669 700.75478 330.567 699.01979 326.87305 697.90039 C 323.29103 696.78102 318.81248 696.2207 313.43945 696.2207 C 306.38735 696.2207 300.0637 697.00515 294.4668 698.57227 C 288.98183 700.13941 284.11302 701.8744 279.85938 703.77734 C 275.60573 705.68031 272.02367 707.4153 269.11328 708.98242 C 266.31483 710.54957 264.01953 711.33203 262.22852 711.33203 C 260.9972 711.33203 259.87658 710.93982 258.86914 710.15625 C 257.97364 709.37268 257.19116 708.25402 256.51953 706.79883 C 255.95984 705.34363 255.5116 703.5526 255.17578 701.42578 C 254.83997 699.29894 254.67187 696.94761 254.67188 694.37305 C 254.67187 690.90296 254.95203 688.16138 255.51172 686.14648 C 256.07141 684.13159 257.13599 682.34056 258.70312 680.77344 C 260.27026 679.09437 263.01185 677.30336 266.92969 675.40039 C 270.84752 673.38552 275.43618 671.53847 280.69727 669.85938 C 285.95836 668.18031 291.66762 666.83752 297.82422 665.83008 C 304.09275 664.71071 310.53042 664.15039 317.13477 664.15039 z M 478.32422 664.15039 C 483.02562 664.15039 487.5602 664.48658 491.92578 665.1582 C 496.40331 665.82983 500.43164 666.66834 504.01367 667.67578 C 507.59568 668.68323 510.61939 669.80384 513.08203 671.03516 C 515.54467 672.15455 517.27966 673.16114 518.28711 674.05664 C 519.40648 674.84021 520.18897 675.68068 520.63672 676.57617 C 521.08449 677.35974 521.42066 678.36634 521.64453 679.59766 C 521.86853 680.71703 522.03664 682.17187 522.14844 683.96289 C 522.37219 685.64196 522.48438 687.76916 522.48438 690.34375 C 522.48438 693.36606 522.37219 695.82945 522.14844 697.73242 C 522.03656 699.63536 521.75639 701.14625 521.30859 702.26562 C 520.97277 703.38502 520.4685 704.16749 519.79688 704.61523 C 519.12523 704.95106 518.34276 705.11914 517.44727 705.11914 C 516.43982 705.11914 514.87291 704.5608 512.74609 703.44141 C 510.61928 702.21009 507.93176 700.92137 504.68555 699.57812 C 501.55129 698.23486 497.85717 697.00414 493.60352 695.88477 C 489.46181 694.65345 484.70506 694.03711 479.33203 694.03711 C 475.52612 694.03711 472.22422 694.42932 469.42578 695.21289 C 466.62732 695.99644 464.33203 697.11707 462.54102 698.57227 C 460.75002 700.02746 459.40724 701.76245 458.51172 703.77734 C 457.61622 705.68031 457.16797 707.74954 457.16797 709.98828 C 457.16797 713.45837 458.23256 716.36999 460.35938 718.7207 C 462.48622 721.07139 465.28385 723.14258 468.75391 724.93359 C 472.22399 726.72461 476.14223 728.40358 480.50781 729.9707 C 484.98534 731.53785 489.46192 733.27284 493.93945 735.17578 C 498.52891 736.9668 503.00747 739.09205 507.37305 741.55469 C 511.85058 744.01733 515.82484 747.04104 519.29492 750.62305 C 522.76501 754.20506 525.56264 758.51355 527.68945 763.55078 C 529.81629 768.47606 530.87891 774.35342 530.87891 781.18164 C 530.87891 789.68893 529.25598 797.18922 526.00977 803.68164 C 522.8755 810.17404 518.39893 815.60314 512.57812 819.96875 C 506.75735 824.33433 499.8734 827.58022 491.92578 829.70703 C 483.97819 831.9458 475.35922 833.06445 466.06836 833.06445 C 460.47143 833.06445 455.09837 832.61815 449.94922 831.72266 C 444.91202 830.93908 440.37744 829.93054 436.34766 828.69922 C 432.3179 827.35595 428.95995 826.01317 426.27344 824.66992 C 423.58692 823.32665 421.6278 822.09593 420.39648 820.97656 C 419.16516 819.74524 418.21462 817.89819 417.54297 815.43555 C 416.87135 812.86096 416.53516 809.1108 416.53516 804.18555 C 416.53516 800.93934 416.64735 798.36388 416.87109 796.46094 C 417.09509 794.44605 417.43126 792.87916 417.87891 791.75977 C 418.32665 790.52845 418.88502 789.744 419.55664 789.4082 C 420.22826 788.96043 421.06873 788.73828 422.07617 788.73828 C 423.30749 788.73828 425.0985 789.4647 427.44922 790.91992 C 429.91186 792.26317 432.93362 793.77406 436.51562 795.45312 C 440.09763 797.13219 444.24 798.6991 448.94141 800.1543 C 453.75476 801.60952 459.18387 802.33789 465.22852 802.33789 C 469.0344 802.33789 472.39232 801.94568 475.30273 801.16211 C 478.32505 800.37854 480.89855 799.25988 483.02539 797.80469 C 485.26413 796.34949 486.9431 794.50244 488.0625 792.26367 C 489.18187 790.02491 489.74219 787.44945 489.74219 784.53906 C 489.74219 781.18093 488.67955 778.32728 486.55273 775.97656 C 484.53784 773.51392 481.7943 771.38672 478.32422 769.5957 C 474.96608 767.80471 471.10386 766.12574 466.73828 764.55859 C 462.48462 762.99148 458.06406 761.25648 453.47461 759.35352 C 448.99708 757.45057 444.57457 755.26733 440.20898 752.80469 C 435.95533 750.34205 432.09509 747.32029 428.625 743.73828 C 425.26686 740.15625 422.5233 735.8458 420.39648 730.80859 C 418.38159 725.77137 417.375 719.72788 417.375 712.67578 C 417.375 705.51174 418.7738 698.96397 421.57227 693.03125 C 424.3707 686.9866 428.40101 681.83569 433.66211 677.58203 C 438.92319 673.3284 445.30287 670.0265 452.80273 667.67578 C 460.41453 665.32509 468.92143 664.15039 478.32422 664.15039 z M 843.85938 664.15039 C 848.56078 664.15039 853.0934 664.48658 857.45898 665.1582 C 861.93652 665.82983 865.96679 666.66834 869.54883 667.67578 C 873.13084 668.68323 876.15259 669.80384 878.61523 671.03516 C 881.07787 672.15455 882.81287 673.16114 883.82031 674.05664 C 884.93968 674.84021 885.72413 675.68068 886.17188 676.57617 C 886.61965 677.35974 886.95581 678.36634 887.17969 679.59766 C 887.40369 680.71703 887.5718 682.17187 887.68359 683.96289 C 887.90734 685.64196 888.01758 687.76916 888.01758 690.34375 C 888.01758 693.36606 887.90734 695.82945 887.68359 697.73242 C 887.57172 699.63536 887.29155 701.14625 886.84375 702.26562 C 886.50793 703.38502 886.00365 704.16749 885.33203 704.61523 C 884.66038 704.95106 883.87596 705.11914 882.98047 705.11914 C 881.97302 705.11914 880.40611 704.5608 878.2793 703.44141 C 876.15248 702.21009 873.46691 700.92137 870.2207 699.57812 C 867.08644 698.23486 863.39233 697.00414 859.13867 695.88477 C 854.99696 694.65345 850.24021 694.03711 844.86719 694.03711 C 841.06128 694.03711 837.75742 694.42932 834.95898 695.21289 C 832.16052 695.99644 829.86719 697.11707 828.07617 698.57227 C 826.28518 700.02746 824.94044 701.76245 824.04492 703.77734 C 823.14943 705.68031 822.70312 707.74954 822.70312 709.98828 C 822.70312 713.45837 823.76576 716.36999 825.89258 718.7207 C 828.01942 721.07139 830.819 723.14258 834.28906 724.93359 C 837.75915 726.72461 841.67543 728.40358 846.04102 729.9707 C 850.51855 731.53785 854.99708 733.27284 859.47461 735.17578 C 864.06406 736.9668 868.54067 739.09205 872.90625 741.55469 C 877.38378 744.01733 881.35804 747.04104 884.82812 750.62305 C 888.29821 754.20506 891.09584 758.51355 893.22266 763.55078 C 895.3495 768.47606 896.41406 774.35342 896.41406 781.18164 C 896.41406 789.68893 894.79113 797.18922 891.54492 803.68164 C 888.41066 810.17404 883.93213 815.60314 878.11133 819.96875 C 872.29055 824.33433 865.4066 827.58022 857.45898 829.70703 C 849.51139 831.9458 840.89242 833.06445 831.60156 833.06445 C 826.00464 833.06445 820.63157 832.61815 815.48242 831.72266 C 810.44522 830.93908 805.9126 829.93054 801.88281 828.69922 C 797.85305 827.35595 794.49315 826.01317 791.80664 824.66992 C 789.12013 823.32665 787.16296 822.09593 785.93164 820.97656 C 784.70032 819.74524 783.74782 817.89819 783.07617 815.43555 C 782.40455 812.86096 782.06836 809.1108 782.06836 804.18555 C 782.06836 800.93934 782.1803 798.36388 782.4043 796.46094 C 782.62804 794.44605 782.96421 792.87916 783.41211 791.75977 C 783.85986 790.52845 784.42017 789.744 785.0918 789.4082 C 785.76342 788.96043 786.60193 788.73828 787.60938 788.73828 C 788.84069 788.73828 790.63171 789.4647 792.98242 790.91992 C 795.44506 792.26317 798.46877 793.77406 802.05078 795.45312 C 805.63279 797.13219 809.7732 798.6991 814.47461 800.1543 C 819.28796 801.60952 824.71707 802.33789 830.76172 802.33789 C 834.5676 802.33789 837.92552 801.94568 840.83594 801.16211 C 843.85825 800.37854 846.43371 799.25988 848.56055 797.80469 C 850.79929 796.34949 852.47826 794.50244 853.59766 792.26367 C 854.71703 790.02491 855.27734 787.44945 855.27734 784.53906 C 855.27734 781.18093 854.21275 778.32728 852.08594 775.97656 C 850.07105 773.51392 847.32946 771.38672 843.85938 769.5957 C 840.50124 767.80471 836.63902 766.12574 832.27344 764.55859 C 828.01978 762.99148 823.59727 761.25648 819.00781 759.35352 C 814.53028 757.45057 810.10972 755.26733 805.74414 752.80469 C 801.49048 750.34205 797.62829 747.32029 794.1582 743.73828 C 790.80007 740.15625 788.05846 735.8458 785.93164 730.80859 C 783.91675 725.77137 782.9082 719.72788 782.9082 712.67578 C 782.9082 705.51174 784.30701 698.96397 787.10547 693.03125 C 789.90391 686.9866 793.93421 681.83569 799.19531 677.58203 C 804.45639 673.3284 810.83802 670.0265 818.33789 667.67578 C 825.94968 665.32509 834.45659 664.15039 843.85938 664.15039 z M 713.39453 664.31836 C 717.87206 664.31836 722.23856 664.71057 726.49219 665.49414 C 730.85777 666.27771 734.88807 667.34032 738.58203 668.68359 C 742.38794 670.02684 745.74586 671.53773 748.65625 673.2168 C 751.67859 674.89586 753.80384 676.35071 755.03516 677.58203 C 756.26648 678.81335 757.10694 679.87792 757.55469 680.77344 C 758.11439 681.55701 758.50659 682.61965 758.73047 683.96289 C 759.06627 685.30616 759.29039 686.98513 759.40234 689 C 759.62634 690.90297 759.73828 693.2543 759.73828 696.05273 C 759.73828 702.54516 759.17799 707.1338 758.05859 709.82031 C 756.93922 712.39488 755.48438 713.68359 753.69336 713.68359 C 751.79042 713.68359 749.77525 712.89915 747.64844 711.33203 C 745.5216 709.76489 743.00218 708.02989 740.0918 706.12695 C 737.18141 704.22401 733.7114 702.48902 729.68164 700.92188 C 725.65186 699.35473 720.83909 698.57227 715.24219 698.57227 C 704.27223 698.57227 695.87742 702.82472 690.05664 711.33203 C 684.23587 719.7274 681.32422 732.0965 681.32422 748.43945 C 681.32422 756.49899 682.05262 763.60707 683.50781 769.76367 C 684.96301 775.92027 687.09021 781.06923 689.88867 785.21094 C 692.79906 789.35264 696.38113 792.48839 700.63477 794.61523 C 705.00037 796.6301 710.03727 797.63672 715.74609 797.63672 C 721.56689 797.63672 726.54775 796.79626 730.68945 795.11719 C 734.94308 793.32617 738.6372 791.369 741.77148 789.24219 C 744.90575 787.11537 747.53725 785.21227 749.66406 783.5332 C 751.7909 781.74219 753.58192 780.8457 755.03711 780.8457 C 756.04456 780.8457 756.88307 781.12585 757.55469 781.68555 C 758.22631 782.24522 758.73058 783.30786 759.06641 784.875 C 759.51415 786.33019 759.85034 788.23329 760.07422 790.58398 C 760.29797 792.9347 760.4082 795.95838 760.4082 799.65234 C 760.4082 802.56273 760.29601 805.02417 760.07227 807.03906 C 759.96039 808.942 759.73822 810.56493 759.40234 811.9082 C 759.17834 813.25145 758.84215 814.37208 758.39453 815.26758 C 758.05871 816.05115 757.21827 817.11376 755.875 818.45703 C 754.53176 819.68835 752.2384 821.25526 748.99219 823.1582 C 745.74598 824.94922 742.05186 826.57215 737.91016 828.02734 C 733.76845 829.48254 729.23387 830.65919 724.30859 831.55469 C 719.49526 832.45021 714.51439 832.89648 709.36523 832.89648 C 697.83561 832.89648 687.59373 831.10547 678.63867 827.52344 C 669.79556 823.94143 662.35129 818.6804 656.30664 811.74023 C 650.26197 804.68814 645.67332 796.12521 642.53906 786.05078 C 639.51675 775.97635 638.00391 764.44771 638.00391 751.46289 C 638.00391 736.46318 639.85099 723.53378 643.54492 712.67578 C 647.35083 701.70585 652.61183 692.63865 659.32812 685.47461 C 666.0444 678.31057 673.99294 672.99352 683.17188 669.52344 C 692.35079 666.05335 702.42458 664.31836 713.39453 664.31836 z M 583.76953 667.00391 C 587.91124 667.00391 591.32716 667.17199 594.01367 667.50781 C 596.70019 667.84361 598.82543 668.34788 600.39258 669.01953 C 602.07165 669.5792 603.2483 670.3076 603.91992 671.20312 C 604.59157 671.9867 604.92773 672.93727 604.92773 674.05664 L 604.92773 823.49414 C 604.92773 824.61354 604.59157 825.62208 603.91992 826.51758 C 603.2483 827.30115 602.07165 827.97158 600.39258 828.53125 C 598.82543 829.09095 596.70019 829.48316 594.01367 829.70703 C 591.32716 830.04285 587.91124 830.21094 583.76953 830.21094 C 579.62782 830.21094 576.21386 830.04285 573.52734 829.70703 C 570.84083 829.48303 568.65954 829.09082 566.98047 828.53125 C 565.41333 827.97158 564.29272 827.30115 563.62109 826.51758 C 562.94947 825.62208 562.61328 824.61354 562.61328 823.49414 L 562.61328 674.05664 C 562.61328 672.93727 562.94947 671.9867 563.62109 671.20312 C 564.29272 670.3076 565.41333 669.5792 566.98047 669.01953 C 568.65954 668.34788 570.84083 667.84361 573.52734 667.50781 C 576.21386 667.17199 579.62782 667.00391 583.76953 667.00391 z M 148.38672 700.25 C 145.58827 700.25 142.84667 700.64221 140.16016 701.42578 C 137.47364 702.20933 134.67406 703.55211 131.76367 705.45508 C 128.96522 707.35802 126.05553 709.82141 123.0332 712.84375 C 120.01087 715.86606 116.82103 719.61622 113.46289 724.09375 L 113.46289 773.79297 C 119.39561 781.40476 125.04885 787.22608 130.42188 791.25586 C 135.90684 795.17369 141.61415 797.13281 147.54688 797.13281 C 153.03184 797.13281 157.67848 795.73401 161.48438 792.93555 C 165.29027 790.13708 168.42408 786.49899 170.88672 782.02148 C 173.4613 777.54395 175.30835 772.45104 176.42773 766.74219 C 177.54712 761.03336 178.10742 755.32408 178.10742 749.61523 C 178.10742 743.23476 177.60315 737.07726 176.5957 731.14453 C 175.7002 725.21181 174.07726 719.95078 171.72656 715.36133 C 169.37586 710.77187 166.29808 707.1338 162.49219 704.44727 C 158.79823 701.64883 154.09556 700.25 148.38672 700.25 z M 325.69727 759.85742 C 318.86904 759.85742 313.04771 760.36169 308.23438 761.36914 C 303.42104 762.37659 299.5028 763.88745 296.48047 765.90234 C 293.45814 767.91721 291.22082 770.37868 289.76562 773.28906 C 288.42237 776.08753 287.75 779.33534 287.75 783.0293 C 287.75 789.29782 289.70912 794.22265 293.62695 797.80469 C 297.65673 801.3867 303.1979 803.17773 310.25 803.17773 C 316.18272 803.17773 321.61183 801.66684 326.53711 798.64453 C 331.57433 795.62219 336.66725 791.19968 341.81641 785.37891 L 341.81641 759.85742 L 325.69727 759.85742 z "
       transform="scale(0.26458333)" />
  </g>
</svg>
